<svg xmlns="http://www.w3.org/2000/svg" viewBox="0 0 512 512"><defs><linearGradient id="g" x1="70" y1="50" x2="440" y2="470" gradientUnits="userSpaceOnUse"><stop stop-color="#ffb36d"/><stop offset=".55" stop-color="#ff8a3d"/><stop offset="1" stop-color="#e86822"/></linearGradient><radialGradient id="bg" cx="50%" cy="0%" r="100%"><stop stop-color="#1b2028"/><stop offset="1" stop-color="#07090c"/></radialGradient></defs><rect width="512" height="512" rx="118" fill="url(#bg)"/><rect x="45" y="45" width="422" height="422" rx="102" fill="none" stroke="#ffffff" stroke-opacity=".07" stroke-width="4"/><path d="M158 146h108c77 0 121 38 121 103 0 67-48 108-127 108h-30v52h-72V146zm72 61v90h30c35 0 54-15 54-45 0-30-19-45-54-45h-30z" fill="url(#g)"/><path d="M103 234h34v-25c0-10 8-18 18-18s18 8 18 18v25h166v-25c0-10 8-18 18-18s18 8 18 18v25h34c12 0 21 9 21 21v14c0 12-9 21-21 21h-34v25c0 10-8 18-18 18s-18-8-18-18v-25H173v25c0 10-8 18-18 18s-18-8-18-18v-25h-34c-12 0-21-9-21-21v-14c0-12 9-21 21-21z" fill="#f6f8fb" fill-opacity=".92"/><circle cx="256" cy="262" r="54" fill="#090b0f" fill-opacity=".16"/></svg>